<svg xmlns="http://www.w3.org/2000/svg" width="38" height="38" viewBox="0 0 38 38">
  <g id="Group_2589" data-name="Group 2589" transform="translate(0.45)">
    <g id="Layer_2" data-name="Layer 2" transform="translate(0 0)">
      <g id="Layer_1" data-name="Layer 1" transform="translate(0)">
        <rect id="Rectangle_314" data-name="Rectangle 314" width="38" height="38" rx="4" transform="translate(-0.45)" fill="#014d98"/>
        <path id="Path_292" data-name="Path 292" d="M13.9,22.669a4.763,4.763,0,0,1-4.416-3.3,4.72,4.72,0,0,0,2.041,0,4.749,4.749,0,0,1-3.04-2.273,4.6,4.6,0,0,1-.695-2.534A4.691,4.691,0,0,0,9.9,15.14a4.778,4.778,0,0,1-1.955-2.9,4.705,4.705,0,0,1,.536-3.431,13.6,13.6,0,0,0,9.787,5.01A1.266,1.266,0,0,0,18.2,13.3a4.749,4.749,0,0,1,8.079-3.967.246.246,0,0,0,.246.072A9.556,9.556,0,0,0,29.289,8.35a4.865,4.865,0,0,1-1.984,2.577,9.121,9.121,0,0,0,2.65-.709l-.478.709a9.324,9.324,0,0,1-1.723,1.636.159.159,0,0,0-.072.145,13.161,13.161,0,0,1-.087,2.114,13.986,13.986,0,0,1-1.231,4.228A13.668,13.668,0,0,1,23.8,22.8a12.7,12.7,0,0,1-6.53,3.634,14.174,14.174,0,0,1-2.65.319A13.421,13.421,0,0,1,7.036,24.71l-.116-.072a9.614,9.614,0,0,0,4.72-.68A9.455,9.455,0,0,0,13.9,22.669Z" transform="translate(0.68 1.57)" fill="#fff" fill-rule="evenodd"/>
      </g>
    </g>
  </g>
</svg>
