<svg xmlns="http://www.w3.org/2000/svg" width="38" height="38" viewBox="0 0 38 38">
  <g id="Group_8354" data-name="Group 8354" transform="translate(0.3)">
    <g id="Layer_2" data-name="Layer 2" transform="translate(0 0)">
      <g id="Layer_1" data-name="Layer 1">
        <rect id="Rectangle_314" data-name="Rectangle 314" width="38" height="38" rx="4" transform="translate(-0.3)" fill="#014d98"/>
        <g id="Group_8355" data-name="Group 8355" transform="translate(8.075 10.925)">
          <path id="Path_3794" data-name="Path 3794" d="M669.62,1862.469v4.361c-.03.2-.066.41-.089.616-.068.624-.1,1.255-.2,1.873a2.872,2.872,0,0,1-2.988,2.765c-1.478.11-2.963.187-4.445.184-3.337-.007-6.675-.032-10.01-.127-2.631-.075-3.559-.907-3.859-3.249-.088-.685-.139-1.375-.206-2.062v-4.361c.031-.254.056-.509.095-.762.125-.826.195-1.667.4-2.474a2.577,2.577,0,0,1,2.212-1.97,8.28,8.28,0,0,1,1.348-.119c3.275-.049,6.55-.116,9.824-.116,1.644,0,3.289.1,4.931.212a2.532,2.532,0,0,1,2.426,1.821,11.617,11.617,0,0,1,.375,1.69C669.522,1861.319,669.559,1861.9,669.62,1862.469Zm-7.26,1.914-5.885-3.063v6.13Z" transform="translate(-647.821 -1857.028)" fill="none" stroke="#fff" stroke-width="1.5"/>
        </g>
      </g>
    </g>
  </g>
</svg>
